# Blender 5.1.2
# www.blender.org
mtllib pine_tree_billboard.mtl
o lod_last
v -1.950955 -0.102889 1.950955
v 1.950955 -0.102889 -1.950955
v -1.950955 10.207241 1.950955
v 1.950955 10.207241 -1.950955
v 1.786303 -0.102888 1.786303
v -1.786303 -0.102888 -1.786303
v 1.786303 10.207241 1.786302
v -1.786302 10.207241 -1.786303
vn 0.7071 -0.0000 0.7071
vn 0.7071 -0.0000 -0.7071
vt 0.232393 0.000000
vt 0.767607 0.000000
vt 0.767607 1.000000
vt 0.232393 1.000000
vt 0.254977 0.000000
vt 0.745023 0.000000
vt 0.745022 1.000000
vt 0.254978 1.000000
s 0
usemtl Billboard
f 1/1/1 2/2/1 4/3/1
f 1/1/1 4/3/1 3/4/1
f 5/5/2 6/6/2 8/7/2
f 5/5/2 8/7/2 7/8/2
